<svg viewBox="0 0 100 100" xmlns="http://www.w3.org/2000/svg">
    <circle
        r="30"
        cx="50"
        cy="50"
        stroke="#a6ce39"
        stroke-dasharray="19 180"
        stroke-width="30"
        fill="none"
    />
    <circle
        r="30"
        cx="50"
        cy="50"
        stroke="#60bb46"
        transform="rotate(36 50 50)"
        stroke-dasharray="19 180"
        stroke-width="30"
        fill="none"
    />
    <circle
        r="30"
        cx="50"
        cy="50"
        stroke="#00ae9d"
        transform="rotate(72 50 50)"
        stroke-dasharray="19 180"
        stroke-width="30"
        fill="none"
    />
    <circle
        r="30"
        cx="50"
        cy="50"
        stroke="#00a6e4"
        transform="rotate(108 50 50)"
        stroke-dasharray="19 180"
        stroke-width="30"
        fill="none"
    />
    <circle
        r="30"
        cx="50"
        cy="50"
        stroke="#b41e8d"
        transform="rotate(144 50 50)"
        stroke-dasharray="19 180"
        stroke-width="30"
        fill="none"
    />
    <circle
        r="30"
        cx="50"
        cy="50"
        stroke="#ed1a3a"
        transform="rotate(180 50 50)"
        stroke-dasharray="19 180"
        stroke-width="30"
        fill="none"
    />
    <circle
        r="30"
        cx="50"
        cy="50"
        stroke="#f36421"
        transform="rotate(216 50 50)"
        stroke-dasharray="19 180"
        stroke-width="30"
        fill="none"
    />
    <circle
        r="30"
        cx="50"
        cy="50"
        stroke="#f89c1c"
        transform="rotate(252 50 50)"
        stroke-dasharray="19 180"
        stroke-width="30"
        fill="none"
    />
    <circle
        r="30"
        cx="50"
        cy="50"
        stroke="#fed702"
        transform="rotate(288 50 50)"
        stroke-dasharray="19 180"
        stroke-width="30"
        fill="none"
    />
    <circle
        r="30"
        cx="50"
        cy="50"
        stroke="#a5c3cb"
        transform="rotate(324 50 50)"
        stroke-dasharray="19 180"
        stroke-width="30"
        fill="none"
    />
    <path
        fill="#05164c"
        d="M50 5C25.149 5 5 25.149 5 50s20.149 45 45 45 45-20.149 45-45S74.851 5 50 5zm5.235 83.985L50 83.75l-5.235 5.235c-17.523-2.346-31.404-16.227-33.75-33.75L16.25 50l-5.235-5.235c2.346-17.523 16.227-31.404 33.75-33.75L50 16.25l5.235-5.235c17.523 2.346 31.404 16.227 33.75 33.75L83.75 50l5.235 5.235c-2.346 17.523-16.232 31.404-33.75 33.75zm-9.212-42.962l27.84-19.885-19.886 27.84-27.84 19.884z" />
</svg>
